# Blender 5.1.2
# www.blender.org
mtllib 3ds.mtl
o shell_Cartridge_Backup:Cage_Cartridge_Backup:lambert2_0
v -0.889474 0.914126 -0.073712
v -0.889560 -0.267207 -0.073972
v -0.889991 -0.266293 0.008258
v 0.879374 0.914132 -0.084444
v 0.799599 0.645032 -0.084890
v -0.878872 0.914139 -0.084424
v 0.879374 0.652093 -0.084444
v 0.807239 0.652672 -0.084887
v 0.879374 0.924775 -0.073756
v 0.725828 0.925000 0.074061
v 0.879374 0.924775 0.073869
v -0.830635 -0.925000 0.009978
v -0.878812 -0.924592 0.073868
v -0.878593 -0.924776 0.010172
v 0.800189 -0.913941 0.084557
v 0.799611 0.645031 0.085000
v 0.725828 0.914323 0.084783
v 0.799951 -0.785155 -0.084702
v 0.732483 -0.785262 -0.084695
v 0.732741 -0.452400 -0.084817
v -0.889599 -0.914274 0.010086
v -0.889448 -0.913956 0.073873
v -0.889830 -0.856994 0.009839
v 0.810799 -0.914656 0.008658
v 0.810867 -0.789090 -0.074637
v 0.810809 -0.913953 0.073873
v 0.800175 -0.924590 0.073869
v 0.800071 -0.797810 -0.080923
v 0.732649 -0.797904 -0.080871
v 0.721709 -0.789103 -0.074635
v 0.800083 -0.924767 0.011139
v 0.799949 -0.918061 -0.001273
v -0.878830 -0.913941 0.084557
v -0.878830 0.924775 -0.073756
v -0.878830 0.924775 0.073869
v -0.889455 0.914132 0.073869
v -0.878830 0.914132 0.084557
v 0.879374 0.914132 0.084557
v 0.890000 0.914132 0.073869
v 0.890000 0.652093 0.073869
v 0.879374 0.652093 0.084557
v 0.879374 0.641449 0.073869
v 0.879374 0.641449 -0.073756
v 0.890000 0.652093 -0.073756
v 0.890000 0.914132 -0.073756
v -0.788966 -0.797809 -0.080925
v -0.789082 -0.785152 -0.084702
v -0.778167 -0.789091 -0.074640
v 0.716116 -0.461540 -0.029831
v 0.716096 -0.455869 -0.035519
v 0.721769 -0.461546 -0.035539
v -0.778227 -0.461546 -0.035539
v -0.772554 -0.455869 -0.035519
v -0.772574 -0.461540 -0.029831
v 0.807239 0.652672 0.085000
v 0.732773 -0.853929 -0.043902
v -0.881081 -0.917013 -0.001855
v -0.833920 -0.822756 -0.001508
v -0.881266 -0.795907 -0.002329
v -0.825720 -0.899176 -0.013933
v -0.789275 -0.853913 -0.043913
v -0.773779 -0.880655 -0.026437
v -0.834873 -0.784108 -0.076778
v -0.834825 -0.794440 -0.073788
v -0.834813 -0.891574 -0.010906
v -0.832568 -0.907960 -0.002329
v -0.880973 -0.686401 -0.076497
v -0.889665 -0.675695 -0.073845
v -0.880940 -0.678631 -0.084315
v -0.880524 -0.356821 -0.084456
v -0.830171 -0.357822 -0.085000
v -0.781794 -0.444646 -0.084887
v -0.880606 -0.343983 -0.074247
v -0.889627 -0.356931 -0.073939
v -0.880322 -0.267300 -0.084449
v -0.880437 -0.278587 -0.074105
v -0.789284 -0.452359 -0.084845
v -0.825710 -0.677531 -0.084968
v -0.831838 -0.266206 -0.084994
v -0.825586 -0.917998 -0.001676
v 0.717322 -0.880578 -0.026488
v 0.725336 -0.444646 -0.084887
v 0.722006 -0.461337 -0.074424
v 0.810565 0.635980 -0.074430
v 0.810583 0.635982 0.074514
v 0.816272 0.641681 0.074514
v 0.816272 0.641681 -0.074401
v 0.722501 -0.848133 -0.036709
v 0.716085 -0.867851 -0.030115
v -0.778467 -0.461338 -0.074430
v -0.772760 -0.455637 -0.074401
v 0.716303 -0.455637 -0.074401
v -0.772547 -0.867855 -0.030116
v -0.778959 -0.848134 -0.036709
v -0.882165 -0.685013 -0.000587
v -0.833317 -0.685151 -0.000902
v -0.890000 -0.674820 0.010803
v -0.833324 -0.685158 -0.077568
v -0.826932 -0.785246 -0.084642
v -0.826834 -0.797757 -0.080932
v -0.847179 -0.345258 -0.075682
v -0.847175 -0.277350 -0.075562
v -0.881530 -0.277106 -0.001434
v -0.881617 -0.345502 -0.001470
v -0.889997 -0.357716 0.008299
v -0.847679 -0.277322 -0.001458
v -0.847679 -0.345139 -0.001458
vn -1.0000 0.0001 -0.0052
vn -0.0000 0.0017 -1.0000
vn 0.0061 -0.0000 -1.0000
vn 0.0015 1.0000 -0.0000
vn -0.0047 -1.0000 0.0029
vn -0.0040 -0.0003 1.0000
vn -0.0001 -0.0004 -1.0000
vn -1.0000 -0.0040 0.0024
vn 1.0000 -0.0006 -0.0001
vn -0.0018 0.0022 -1.0000
vn 0.5783 -0.5783 0.5754
vn 0.6173 -0.2197 -0.7554
vn -0.6172 -0.2352 -0.7509
vn 0.5819 -0.7128 -0.3914
vn -0.5782 -0.5784 0.5754
vn -0.5804 0.5778 -0.5738
vn -0.5788 0.5778 0.5754
vn 0.5788 0.5778 0.5754
vn 0.5788 -0.5778 0.5754
vn 0.5788 -0.5778 -0.5754
vn 0.5788 0.5778 -0.5754
vn 0.6172 -0.2198 -0.7555
vn -0.5802 -0.5778 -0.5740
vn 0.5802 -0.5778 -0.5740
vn -0.0006 0.0006 1.0000
vn 0.0001 -0.5508 -0.8347
vn -0.6553 -0.6892 -0.3093
vn 0.0151 -0.0039 -0.9999
vn -0.0053 -0.5492 -0.8357
vn -0.9999 -0.0012 0.0121
vn -0.9998 0.0107 0.0167
vn -0.9750 -0.0176 0.2215
vn -0.7358 -0.4788 -0.4789
vn -0.0110 -0.0074 -0.9999
vn -0.6751 0.4565 -0.5795
vn -0.6467 -0.5118 -0.5656
vn -1.0000 0.0004 0.0001
vn -0.0119 0.0025 -0.9999
vn -0.0113 -0.0000 -0.9999
vn 0.0002 -0.5579 -0.8299
vn -0.0001 1.0000 -0.0017
vn -0.0000 1.0000 -0.0000
vn -0.0003 -0.0000 -1.0000
vn -0.0000 0.0003 -1.0000
vn -0.0000 -0.0001 1.0000
vn -0.0001 -0.0000 1.0000
vn 0.6872 -0.7265 0.0077
vn 0.7072 -0.7070 0.0009
vn -0.0000 -0.7084 0.7058
vn 0.6817 -0.4047 -0.6095
vn 0.6834 -0.4036 -0.6083
vn 0.0004 -0.2861 -0.9582
vn -0.0003 -0.2895 -0.9572
vn -0.6957 0.0003 -0.7184
vn -0.6826 0.0011 -0.7307
vn -0.0000 0.7086 -0.7057
vn -0.0000 0.7082 -0.7061
vn 0.0019 0.7086 0.7056
vn -0.0002 0.7086 0.7056
vn -0.6904 -0.7235 -0.0003
vn -0.7071 -0.7071 0.0052
vn 0.6903 0.0003 -0.7235
vn 0.6779 0.0001 -0.7352
vn -0.7077 0.7065 -0.0000
vn -0.7073 0.7069 0.0001
vn -0.7093 -0.0000 0.7049
vn -0.7092 -0.0000 0.7050
vn 0.7093 -0.0002 0.7050
vn 0.6909 0.0001 0.7229
vn 0.0046 -0.7086 0.7056
vn -0.0011 -0.6908 0.7231
vn 0.7068 -0.7075 -0.0000
vn 0.7077 -0.7065 -0.0001
vn 0.7092 -0.0000 0.7050
vn -0.0014 -0.7086 -0.7056
vn 0.0049 -0.6882 -0.7255
vn 0.7092 -0.0000 -0.7050
vn 0.7077 -0.7065 -0.0000
vn 0.7077 0.7065 -0.0000
vn -0.7105 0.0008 -0.7037
vn -0.7175 0.0005 -0.6965
vn 0.6941 0.0011 -0.7199
vn 0.6778 0.0001 -0.7352
vn 0.7068 -0.7074 -0.0080
vn 0.7073 -0.7068 -0.0082
vn -0.0000 -0.6903 -0.7235
vn -0.7069 -0.7072 -0.0081
vn -0.7073 -0.7068 -0.0080
vn 0.7105 0.0005 -0.7037
vn 0.7180 0.0007 -0.6960
vn -0.0000 -0.7082 -0.7060
vn 1.0000 -0.0000 -0.0000
vn 1.0000 0.0001 0.0005
vn 1.0000 0.0002 -0.0001
vn 0.0061 -0.0000 1.0000
vn 0.0015 0.0013 1.0000
vn -0.0037 -1.0000 -0.0000
vn 0.0019 -0.0001 -1.0000
vn -0.0115 -0.0020 0.9999
vn 0.0019 -0.5522 -0.8337
vn 0.0058 -0.5494 -0.8356
vn -0.0000 0.0007 -1.0000
vn 0.9998 0.0009 0.0223
vn 1.0000 -0.0019 -0.0062
vn -0.9998 -0.0019 0.0178
vn -1.0000 0.0009 -0.0061
vn -0.0000 -1.0000 -0.0060
vn 0.4212 -0.4205 0.8036
vn 0.4228 -0.4191 -0.8035
vn 0.4204 -0.4201 -0.8043
vn 0.4227 -0.4191 -0.8035
vn 0.4259 -0.4179 -0.8025
vn -0.4272 -0.4152 -0.8032
vn -0.4246 -0.4216 -0.8012
vn -0.6768 -0.4065 -0.6137
vn -0.6669 -0.4091 -0.6228
vn -0.5990 -0.0718 -0.7975
vn -0.4583 -0.2845 -0.8420
vn -0.0000 -0.2741 -0.9617
vn -0.0000 -0.2762 -0.9611
vn 0.6809 -0.4023 -0.6120
vn 0.6655 -0.4136 -0.6213
vn 0.1061 -0.2841 -0.9529
vn 0.6198 -0.1449 -0.7713
vn 0.0001 -0.8798 -0.4754
vn 0.0005 -0.8573 -0.5149
vn 0.0001 -1.0000 0.0028
vn -0.0000 -1.0000 0.0064
vn -0.0064 0.0044 -1.0000
vn 0.0264 0.0159 -0.9995
vn -0.8229 0.0023 -0.5681
vn -0.8230 0.0022 -0.5680
vn -0.8093 -0.0035 -0.5874
vn -0.8147 -0.0058 -0.5798
vn -0.7764 -0.6302 -0.0007
vn -0.7911 -0.6117 0.0032
vn -0.7107 0.0009 -0.7035
vn -0.7501 0.0002 -0.6613
vn -0.6999 0.0058 -0.7142
vn -0.7033 0.0053 -0.7109
vn -0.7032 -0.2072 -0.6801
vn -0.6980 -0.2021 -0.6870
vn 0.0055 -0.6992 -0.7150
vn 0.0027 -0.7093 -0.7049
vn -0.6975 -0.4003 -0.5944
vn -0.5916 -0.4382 -0.6767
vn -0.5935 -0.4421 -0.6725
vn -0.5693 -0.4411 -0.6938
vn 0.0060 -0.0004 -1.0000
vn -0.0016 -0.0030 -1.0000
vn 0.0034 0.0006 -1.0000
vn 0.0195 0.0003 0.9998
vn -0.0008 -0.2860 -0.9582
vn -0.0002 -0.2843 -0.9587
vn -0.0006 -0.5507 -0.8347
vn -0.0018 -0.5512 -0.8344
vn -0.0000 -0.5595 -0.8288
vn -0.0002 -0.5457 -0.8380
vn -1.0000 0.0044 0.0001
vn -0.9997 0.0158 0.0208
vn 0.0261 -0.9997 0.0001
vn -0.0027 -0.9998 0.0182
vn -0.0135 -0.8545 -0.5193
vn -0.0061 -0.8407 -0.5414
vn -1.0000 -0.0000 0.0060
vn -0.9993 -0.0011 0.0370
vn -0.0049 -0.0006 -1.0000
vn -0.0047 -0.0004 -1.0000
vn -0.7561 0.0007 -0.6545
vn -0.7683 -0.0001 -0.6401
vn -0.0125 0.5846 -0.8112
vn 0.0039 0.6224 -0.7827
vn -0.5189 -0.0094 -0.8548
vn -0.4796 0.0016 -0.8775
vn 0.0061 -0.6510 -0.7591
vn -0.0072 -0.6756 -0.7373
vn -0.7802 -0.6255 0.0010
vn -0.7863 -0.6178 0.0027
vn -0.7526 0.0013 -0.6585
vn -0.7588 -0.0002 -0.6513
vn -0.8244 0.5660 0.0004
vn -0.8205 0.5716 0.0018
vn -1.0000 0.0001 -0.0068
vn -1.0000 -0.0000 -0.0067
vn -0.0107 0.9999 -0.0017
vn 0.0390 0.9990 0.0214
vn 0.0372 -0.9993 0.0006
vn -0.0064 -0.9998 0.0203
vn -0.0007 -0.0000 -1.0000
vn 0.0003 0.0005 -1.0000
vn -1.0000 0.0001 -0.0045
vn -1.0000 -0.0000 -0.0040
vn -1.0000 0.0001 0.0070
vn -1.0000 0.0001 0.0084
vn -0.1092 -0.0113 0.9940
vn 0.0033 0.0021 -1.0000
s 0
usemtl suite_shell
f 1//1 2//1 3//1
f 4//2 5//2 6//2
f 7//3 8//3 4//3
f 9//4 10//4 11//4
f 12//5 13//5 14//5
f 15//6 16//6 17//6
f 18//7 19//7 20//7
f 21//8 22//8 23//8
f 24//9 25//9 26//9
f 8//10 5//10 4//10
f 15//11 27//11 26//11
f 28//12 18//12 25//12
f 19//13 29//13 30//13
f 31//14 32//14 24//14
f 22//15 13//15 33//15
f 6//16 1//16 34//16
f 35//17 36//17 37//17
f 11//18 38//18 39//18
f 40//19 41//19 42//19
f 43//20 7//20 44//20
f 45//21 4//21 9//21
f 46//22 47//22 48//22
f 49//23 50//23 51//23
f 52//24 53//24 54//24
f 17//25 16//25 55//25
f 28//26 56//26 29//26
f 14//27 21//27 57//27
f 58//28 57//28 59//28
f 60//29 61//29 62//29
f 63//30 64//30 58//30
f 64//31 65//31 58//31
f 65//32 66//32 58//32
f 67//33 68//33 69//33
f 70//34 71//34 72//34
f 73//35 70//35 74//35
f 75//36 76//36 2//36
f 1//37 3//37 36//37
f 69//38 77//38 78//38
f 6//39 79//39 75//39
f 80//40 81//40 32//40
f 35//41 10//41 9//41
f 35//42 9//42 34//42
f 6//43 5//43 82//43
f 6//44 82//44 72//44
f 33//45 15//45 17//45
f 33//46 17//46 37//46
f 31//47 24//47 26//47
f 31//48 26//48 27//48
f 13//49 27//49 15//49
f 13//49 15//49 33//49
f 28//50 25//50 24//50
f 28//51 24//51 32//51
f 19//52 18//52 28//52
f 19//53 28//53 29//53
f 83//54 20//54 19//54
f 83//55 19//55 30//55
f 34//56 9//56 4//56
f 34//57 4//57 6//57
f 17//58 38//58 11//58
f 17//58 11//58 10//58
f 37//59 17//59 10//59
f 37//59 10//59 35//59
f 21//60 14//60 13//60
f 21//61 13//61 22//61
f 5//62 84//62 25//62
f 5//63 25//63 18//63
f 36//64 35//64 34//64
f 36//65 34//65 1//65
f 22//66 33//66 37//66
f 22//67 37//67 36//67
f 15//68 26//68 85//68
f 15//69 85//69 16//69
f 86//70 42//70 41//70
f 86//71 41//71 55//71
f 84//72 87//72 86//72
f 84//73 86//73 85//73
f 41//74 40//74 39//74
f 41//74 39//74 38//74
f 8//75 7//75 43//75
f 8//76 43//76 87//76
f 4//77 45//77 44//77
f 4//77 44//77 7//77
f 43//78 44//78 40//78
f 43//78 40//78 42//78
f 11//79 39//79 45//79
f 11//79 45//79 9//79
f 49//80 51//80 88//80
f 49//81 88//81 89//81
f 77//82 90//82 48//82
f 77//83 48//83 47//83
f 90//84 91//84 53//84
f 90//85 53//85 52//85
f 72//86 82//86 92//86
f 72//86 92//86 91//86
f 92//87 83//87 51//87
f 92//88 51//88 50//88
f 52//89 54//89 93//89
f 52//90 93//90 94//90
f 53//91 50//91 49//91
f 53//91 49//91 54//91
f 40//92 44//92 45//92
f 40//92 45//92 39//92
f 85//93 26//93 25//93
f 85//94 25//94 84//94
f 55//95 41//95 38//95
f 55//96 38//96 17//96
f 87//97 43//97 42//97
f 87//97 42//97 86//97
f 82//98 5//98 18//98
f 82//99 18//99 20//99
f 56//100 28//100 32//100
f 56//101 32//101 81//101
f 54//102 49//102 89//102
f 54//102 89//102 93//102
f 94//103 48//103 90//103
f 94//104 90//104 52//104
f 30//105 88//105 51//105
f 30//106 51//106 83//106
f 91//107 92//107 50//107
f 91//107 50//107 53//107
f 16//108 85//108 86//108
f 16//108 86//108 55//108
f 8//109 87//109 84//109
f 8//110 84//110 5//110
f 72//111 91//111 90//111
f 72//112 90//112 77//112
f 92//113 82//113 20//113
f 92//114 20//114 83//114
f 30//115 29//115 56//115
f 30//116 56//116 88//116
f 89//117 88//117 56//117
f 89//118 56//118 81//118
f 93//119 89//119 81//119
f 93//120 81//120 62//120
f 46//121 48//121 94//121
f 46//122 94//122 61//122
f 94//123 93//123 62//123
f 94//124 62//124 61//124
f 80//125 32//125 31//125
f 80//126 31//126 12//126
f 12//127 31//127 27//127
f 12//128 27//128 13//128
f 95//129 96//129 58//129
f 95//130 58//130 59//130
f 97//131 95//131 59//131
f 97//132 59//132 23//132
f 23//133 59//133 57//133
f 23//134 57//134 21//134
f 68//135 67//135 95//135
f 68//136 95//136 97//136
f 1//137 6//137 75//137
f 1//138 75//138 2//138
f 98//139 78//139 99//139
f 98//140 99//140 63//140
f 63//141 99//141 100//141
f 63//142 100//142 64//142
f 69//143 78//143 98//143
f 69//144 98//144 67//144
f 64//145 100//145 60//145
f 64//146 60//146 65//146
f 65//147 60//147 80//147
f 65//148 80//148 66//148
f 78//149 77//149 47//149
f 78//150 47//150 99//150
f 6//151 72//151 71//151
f 6//152 71//152 79//152
f 99//153 47//153 46//153
f 99//154 46//154 100//154
f 100//155 46//155 61//155
f 100//156 61//156 60//156
f 60//157 62//157 81//157
f 60//158 81//158 80//158
f 58//159 96//159 98//159
f 58//160 98//160 63//160
f 67//161 98//161 96//161
f 67//162 96//162 95//162
f 57//163 80//163 12//163
f 57//164 12//164 14//164
f 23//165 22//165 36//165
f 23//166 36//166 97//166
f 70//167 72//167 77//167
f 70//168 77//168 69//168
f 74//169 70//169 69//169
f 74//170 69//170 68//170
f 73//171 101//171 71//171
f 73//172 71//172 70//172
f 102//173 79//173 71//173
f 102//174 71//174 101//174
f 75//175 79//175 102//175
f 75//176 102//176 76//176
f 2//177 76//177 103//177
f 2//178 103//178 3//178
f 3//179 103//179 104//179
f 3//180 104//180 105//180
f 105//181 104//181 73//181
f 105//182 73//182 74//182
f 106//183 102//183 101//183
f 106//184 101//184 107//184
f 104//185 107//185 101//185
f 104//186 101//186 73//186
f 76//187 102//187 106//187
f 76//188 106//188 103//188
f 103//189 106//189 107//189
f 103//190 107//190 104//190
f 105//191 74//191 68//191
f 105//192 68//192 97//192
f 97//193 36//193 3//193
f 97//194 3//194 105//194
f 58//195 66//195 80//195
f 58//196 80//196 57//196
