# Blender 5.1.2
# www.blender.org
mtllib gb.mtl
o shell_Card_Low__0
v 0.812823 -0.990000 0.115000
v 0.812823 -0.990000 0.078302
v 0.860000 -0.990000 0.078302
v 0.860000 0.182682 0.115000
v 0.812823 0.182682 0.115000
v 0.860000 0.182682 0.078302
v 0.860000 -0.990000 -0.115000
v 0.846815 0.528291 -0.115000
v 0.860000 0.526651 -0.115000
v 0.860000 0.526651 0.051637
v 0.860000 0.526651 0.068910
v 0.812823 -0.990000 -0.096469
v 0.764137 -0.990000 -0.096469
v -0.812823 -0.990000 0.115000
v -0.860000 -0.990000 0.078302
v -0.812823 -0.990000 0.078302
v -0.849156 0.853409 -0.115000
v -0.860000 0.854336 -0.115000
v -0.860000 0.961536 -0.115000
v -0.860000 0.182682 0.115000
v -0.860000 0.182682 0.078302
v -0.812823 0.182682 0.115000
v -0.860000 -0.990000 -0.115000
v -0.860000 0.526651 -0.115000
v -0.846815 0.528291 -0.115000
v -0.860000 0.526651 0.068910
v -0.860000 0.526651 0.051637
v -0.764137 -0.990000 -0.096469
v -0.812823 -0.990000 -0.096469
v 0.721665 0.899275 0.114999
v 0.708830 0.907525 0.114999
v 0.630702 0.834371 0.115000
v 0.703514 0.920170 0.114999
v 0.703514 0.920170 -0.115000
v 0.708830 0.907525 -0.115000
v 0.721665 0.899275 -0.115000
v 0.703514 0.973342 -0.115000
v 0.860000 0.574418 0.068910
v 0.846815 0.572362 0.070633
v 0.846815 0.528291 0.070634
v 0.860000 0.574418 0.051637
v 0.846815 0.762739 -0.115000
v 0.846815 0.788446 -0.115000
v 0.860000 0.786389 -0.115000
v 0.860000 0.764796 -0.115000
v 0.846815 0.572362 -0.115000
v 0.846815 0.598068 -0.115000
v 0.860000 0.596011 -0.115000
v 0.860000 0.574418 -0.115000
v 0.860000 0.724432 0.068910
v 0.860000 0.724432 0.115000
v 0.860000 0.701449 0.115000
v 0.860000 0.701449 0.068910
v 0.846815 0.572362 0.049916
v 0.846815 0.528291 0.049916
v 0.860000 0.636376 0.068910
v 0.846815 0.634187 0.070633
v 0.846815 0.598068 0.070633
v 0.860000 0.596012 0.068910
v 0.846815 0.699260 -0.115000
v 0.846815 0.726620 -0.115000
v 0.860000 0.724431 -0.115000
v 0.860000 0.701449 -0.115000
v 0.846815 0.634187 -0.115000
v 0.846815 0.661547 -0.115000
v 0.860000 0.659358 -0.115000
v 0.860000 0.636376 -0.115000
v 0.860000 0.764796 0.115000
v 0.860000 0.764796 0.068910
v 0.860000 0.786389 0.068910
v 0.860000 0.786389 0.115000
v 0.860000 0.636376 0.051637
v 0.860000 0.596012 0.051637
v 0.860000 0.636376 0.115000
v 0.860000 0.659358 0.115000
v 0.695903 0.659358 0.115000
v 0.691064 0.636376 0.115000
v 0.690719 0.724432 0.115000
v 0.695903 0.701449 0.115000
v 0.697024 0.661547 0.094168
v 0.697024 0.699260 0.094168
v 0.860000 0.574418 0.115000
v 0.860000 0.596012 0.115000
v 0.679393 0.596012 0.115000
v 0.666987 0.574418 0.115000
v 0.666987 0.786389 0.115000
v 0.679565 0.764796 0.115000
v 0.846815 0.699260 0.094168
v 0.812823 -0.709510 -0.096469
v 0.764102 -0.709510 -0.096469
v 0.860000 0.786389 0.051637
v 0.846815 0.788446 0.049916
v 0.860000 0.659358 0.051637
v 0.860000 0.659358 0.068910
v 0.860000 0.701449 0.051637
v 0.860000 0.724431 0.051637
v 0.846815 0.634187 0.049916
v 0.846815 0.598068 0.049916
v 0.860000 0.764796 0.051637
v 0.846815 0.699260 0.070633
v 0.846815 0.661547 0.070633
v 0.840386 0.899275 0.115000
v 0.840386 0.899275 -0.115000
v 0.860000 0.526651 0.115000
v 0.846815 0.788446 0.094168
v 0.666987 0.788446 0.094168
v 0.846815 0.661547 0.094168
v 0.666987 0.572362 0.094168
v 0.846815 0.572362 0.094168
v 0.860000 0.842325 0.071284
v 0.860000 0.834371 0.068910
v 0.860000 0.834371 0.051637
v 0.860000 0.842325 0.049528
v 0.763952 -0.709510 -0.061722
v -0.763952 -0.709510 -0.061722
v -0.764102 -0.986711 -0.062407
v 0.764102 -0.986711 -0.062407
v 0.812823 -0.709510 0.078302
v 0.846815 0.598068 0.094168
v 0.846815 0.634187 0.094168
v 0.691064 0.634187 0.094168
v 0.681290 0.598068 0.094168
v 0.846815 0.726620 0.094168
v 0.846815 0.762739 0.094168
v 0.681290 0.762739 0.094168
v 0.691064 0.726620 0.094168
v 0.846815 0.528291 0.094168
v 0.633337 0.528291 0.094168
v 0.846815 0.832516 0.094168
v 0.633337 0.832516 0.094168
v 0.846815 0.726620 0.070633
v 0.846815 0.762739 0.070633
v 0.846815 0.788446 0.070633
v 0.846815 0.832516 0.070633
v 0.630176 0.526651 0.115000
v 0.860000 0.834371 0.115000
v 0.846815 0.699260 0.049916
v 0.846815 0.661547 0.049916
v 0.846815 0.726620 0.049916
v 0.846815 0.762739 0.049916
v 0.846815 0.832516 0.049916
v 0.860000 0.834371 -0.115000
v 0.846815 0.832516 -0.115000
v -0.812823 -0.709510 0.078302
v -0.630176 0.526651 0.115000
v -0.860000 0.574418 0.068910
v -0.846815 0.528291 0.070634
v -0.846815 0.572362 0.070633
v -0.860000 0.574418 0.051637
v -0.846815 0.762739 -0.115000
v -0.860000 0.764796 -0.115000
v -0.860000 0.786389 -0.115000
v -0.846815 0.788446 -0.115000
v -0.846815 0.572362 -0.115000
v -0.860000 0.574418 -0.115000
v -0.860000 0.596011 -0.115000
v -0.846815 0.598068 -0.115000
v -0.860000 0.724432 0.068910
v -0.860000 0.701449 0.068910
v -0.860000 0.701449 0.115000
v -0.860000 0.724432 0.115000
v -0.846815 0.572362 0.049916
v -0.846815 0.528291 0.049916
v -0.860000 0.636376 0.068910
v -0.860000 0.596012 0.068910
v -0.846815 0.598068 0.070633
v -0.846815 0.634187 0.070633
v -0.846815 0.699260 -0.115000
v -0.860000 0.701449 -0.115000
v -0.860000 0.724431 -0.115000
v -0.846815 0.726620 -0.115000
v -0.846815 0.634187 -0.115000
v -0.860000 0.636376 -0.115000
v -0.860000 0.659358 -0.115000
v -0.846815 0.661547 -0.115000
v -0.860000 0.764796 0.115000
v -0.860000 0.786389 0.115000
v -0.860000 0.786389 0.068910
v -0.860000 0.764796 0.068910
v -0.860000 0.636376 0.051637
v -0.860000 0.596012 0.051637
v -0.860000 0.636376 0.115000
v -0.691064 0.636376 0.115000
v -0.695903 0.659358 0.115000
v -0.860000 0.659358 0.115000
v -0.695903 0.701449 0.115000
v -0.690719 0.724432 0.115000
v -0.697024 0.699260 0.094168
v -0.697024 0.661547 0.094168
v -0.860000 0.574418 0.115000
v -0.666987 0.574418 0.115000
v -0.679393 0.596012 0.115000
v -0.860000 0.596012 0.115000
v -0.679565 0.764796 0.115000
v -0.666987 0.786389 0.115000
v -0.846815 0.699260 0.094168
v -0.764102 -0.709510 -0.096469
v -0.812823 -0.709510 -0.096469
v -0.860000 0.786389 0.051637
v -0.846815 0.788446 0.049916
v -0.860000 0.659358 0.068910
v -0.860000 0.659358 0.051637
v -0.860000 0.701449 0.051637
v -0.860000 0.724431 0.051637
v -0.846815 0.634187 0.049916
v -0.846815 0.598068 0.049916
v -0.860000 0.764796 0.051637
v -0.846815 0.661547 0.070633
v -0.846815 0.699260 0.070633
v -0.860000 0.526651 0.115000
v -0.666987 0.788446 0.094168
v -0.846815 0.788446 0.094168
v -0.846815 0.661547 0.094168
v -0.846815 0.572362 0.094168
v -0.666987 0.572362 0.094168
v -0.846815 0.832516 -0.115000
v -0.853802 0.978762 -0.115000
v -0.860000 0.961536 0.115000
v -0.853802 0.978762 0.115000
v -0.846815 0.598068 0.094168
v -0.681290 0.598068 0.094168
v -0.691064 0.634187 0.094168
v -0.846815 0.634187 0.094168
v -0.846815 0.726620 0.094168
v -0.691064 0.726620 0.094168
v -0.681290 0.762739 0.094168
v -0.846815 0.762739 0.094168
v -0.846815 0.528291 0.094168
v -0.633337 0.528291 0.094168
v -0.633337 0.832516 0.094168
v -0.846815 0.832516 0.094168
v -0.846815 0.726620 0.070633
v -0.846815 0.762739 0.070633
v -0.846815 0.788446 0.070633
v -0.846815 0.832516 0.070633
v -0.860000 0.834371 0.115000
v -0.630702 0.834371 0.115000
v -0.846815 0.699260 0.049916
v -0.846815 0.661547 0.049916
v -0.846815 0.762739 0.049916
v -0.846815 0.726620 0.049916
v -0.860000 0.834371 0.068910
v -0.860000 0.854336 0.069334
v -0.860000 0.834371 0.051637
v -0.846815 0.832516 0.049916
v -0.860000 0.834371 -0.115000
v -0.835274 0.990000 -0.115000
v -0.835274 0.990000 0.115000
v 0.699560 0.983901 -0.115000
v 0.699560 0.983901 0.114999
v 0.687255 0.990000 0.114999
v 0.687255 0.990000 -0.115000
v 0.860000 0.878649 0.115000
v 0.854752 0.893233 0.115000
v 0.703514 0.973433 0.114999
v 0.860000 0.878649 -0.115000
v 0.854752 0.893233 -0.115000
vn -0.0000 -1.0000 -0.0000
vn -0.0000 -0.0000 -1.0000
vn 1.0000 -0.0000 -0.0000
vn -1.0000 -0.0000 -0.0000
vn -0.0000 -0.0000 1.0000
vn 0.1296 -0.0000 0.9916
vn 0.1294 -0.0000 -0.9916
vn 0.9986 -0.0000 0.0537
vn -0.0000 -0.9945 0.1045
vn 0.1541 0.9881 -0.0000
vn -0.0000 1.0000 -0.0000
vn -0.0000 0.9952 0.0982
vn -0.0000 0.9945 0.1045
vn -0.0000 -0.9952 0.0982
vn -0.0000 -0.9952 0.0983
vn -0.0000 -0.0025 1.0000
vn 0.7900 -0.6088 0.0720
vn 0.7934 -0.6058 0.0598
vn -0.0000 -0.9961 0.0887
vn 0.7962 0.6021 0.0594
vn 0.7940 0.6062 0.0465
vn 0.9589 -0.2773 0.0600
vn 0.9649 -0.2611 0.0274
vn 0.9629 0.2661 0.0439
vn 0.9639 0.2608 0.0540
vn 0.1638 0.9865 -0.0000
vn 0.1234 0.9924 -0.0000
vn 0.1541 -0.9881 -0.0000
vn 0.1638 -0.9865 -0.0000
vn -0.0000 0.9969 0.0785
vn 0.1393 -0.9903 -0.0000
vn 1.0000 0.0001 0.0043
vn 1.0000 0.0005 0.0010
vn 0.6140 -0.0000 0.7893
vn -0.0000 -0.9954 0.0961
vn -0.1296 -0.0000 0.9916
vn -0.1294 -0.0000 -0.9916
vn -0.9986 -0.0000 0.0537
vn -0.1541 0.9881 -0.0000
vn -0.9409 0.3386 -0.0000
vn -0.7934 -0.6058 0.0598
vn -0.7900 -0.6088 0.0720
vn -0.7940 0.6062 0.0465
vn -0.7962 0.6021 0.0594
vn -0.9649 -0.2611 0.0274
vn -0.9589 -0.2773 0.0600
vn -0.9639 0.2608 0.0540
vn -0.9629 0.2661 0.0439
vn -0.1638 0.9865 -0.0000
vn -0.1234 0.9924 -0.0000
vn -0.1541 -0.9881 -0.0000
vn -0.1638 -0.9865 -0.0000
vn -0.1393 -0.9903 -0.0000
vn -1.0000 0.0005 0.0010
vn -1.0000 0.0001 0.0043
vn -0.6140 -0.0000 0.7893
vn -0.5186 0.8550 -0.0000
vn 0.9355 0.3534 -0.0000
vn 0.9365 0.3507 -0.0001
vn 0.4441 0.8960 -0.0000
vn 0.9218 0.3876 -0.0000
vn 0.5407 0.8412 -0.0000
vn 0.9409 0.3386 -0.0000
vn 0.3877 0.9218 -0.0000
vn -1.0000 -0.0001 -0.0000
s 0
usemtl suite_shell
f 1//1 2//1 3//1
f 4//1 5//1 6//1
f 7//2 8//2 9//2
f 6//3 10//3 11//3
f 7//1 12//1 13//1
f 7//3 6//3 3//3
f 14//1 15//1 16//1
f 17//2 18//2 19//2
f 20//1 21//1 22//1
f 23//2 24//2 25//2
f 21//4 26//4 27//4
f 23//1 28//1 29//1
f 23//4 15//4 21//4
f 30//5 31//5 32//5
f 31//5 33//5 32//5
f 34//2 35//2 17//2
f 35//2 36//2 17//2
f 17//2 19//2 37//2
f 17//2 37//2 34//2
f 38//6 39//6 40//6
f 38//6 40//6 11//6
f 7//3 9//3 10//3
f 7//3 10//3 6//3
f 41//3 38//3 11//3
f 41//3 11//3 10//3
f 42//2 43//2 44//2
f 42//2 44//2 45//2
f 46//2 47//2 48//2
f 46//2 48//2 49//2
f 50//3 51//3 52//3
f 50//3 52//3 53//3
f 54//7 41//7 10//7
f 54//7 10//7 55//7
f 56//6 57//6 58//6
f 56//6 58//6 59//6
f 60//2 61//2 62//2
f 60//2 62//2 63//2
f 64//2 65//2 66//2
f 64//2 66//2 67//2
f 68//3 69//3 70//3
f 68//3 70//3 71//3
f 72//3 56//3 59//3
f 72//3 59//3 73//3
f 74//5 75//5 76//5
f 74//5 76//5 77//5
f 52//5 51//5 78//5
f 52//5 78//5 79//5
f 79//8 76//8 80//8
f 79//8 80//8 81//8
f 82//5 83//5 84//5
f 82//5 84//5 85//5
f 68//5 71//5 86//5
f 68//5 86//5 87//5
f 52//9 79//9 81//9
f 52//9 81//9 88//9
f 13//5 12//5 89//5
f 13//5 89//5 90//5
f 91//10 44//10 43//10
f 91//10 43//10 92//10
f 72//3 93//3 94//3
f 72//3 94//3 56//3
f 95//3 96//3 50//3
f 95//3 50//3 53//3
f 97//7 72//7 73//7
f 97//7 73//7 98//7
f 41//3 73//3 59//3
f 41//3 59//3 38//3
f 99//3 91//3 70//3
f 99//3 70//3 69//3
f 53//6 100//6 101//6
f 53//6 101//6 94//6
f 36//11 30//11 102//11
f 36//11 102//11 103//11
f 6//3 11//3 104//3
f 6//3 104//3 4//3
f 86//12 71//12 105//12
f 86//12 105//12 106//12
f 76//13 75//13 107//13
f 76//13 107//13 80//13
f 82//14 85//14 108//14
f 82//15 108//15 109//15
f 110//3 111//3 112//3
f 110//3 112//3 113//3
f 114//16 115//16 116//16
f 114//16 116//16 117//16
f 107//5 88//5 81//5
f 107//5 81//5 80//5
f 12//4 2//4 118//4
f 12//4 118//4 89//4
f 119//5 120//5 121//5
f 119//5 121//5 122//5
f 123//5 124//5 125//5
f 123//5 125//5 126//5
f 127//5 109//5 108//5
f 127//5 108//5 128//5
f 105//5 129//5 130//5
f 105//5 130//5 106//5
f 40//3 39//3 109//3
f 40//3 109//3 127//3
f 58//3 57//3 120//3
f 58//3 120//3 119//3
f 101//3 100//3 88//3
f 101//3 88//3 107//3
f 131//3 132//3 124//3
f 131//3 124//3 123//3
f 133//3 134//3 129//3
f 133//3 129//3 105//3
f 85//17 135//17 128//17
f 85//18 128//18 108//18
f 84//12 83//12 119//12
f 84//12 119//12 122//12
f 95//3 53//3 94//3
f 95//3 94//3 93//3
f 68//15 87//15 125//15
f 68//14 125//14 124//14
f 74//9 77//9 121//9
f 74//9 121//9 120//9
f 136//19 32//19 130//19
f 136//19 130//19 129//19
f 78//13 51//13 123//13
f 78//13 123//13 126//13
f 32//20 86//20 106//20
f 32//21 106//21 130//21
f 77//22 84//22 122//22
f 77//23 122//23 121//23
f 73//10 48//10 47//10
f 73//10 47//10 98//10
f 87//24 78//24 126//24
f 87//25 126//25 125//25
f 137//7 95//7 93//7
f 137//7 93//7 138//7
f 96//7 139//7 140//7
f 96//7 140//7 99//7
f 96//26 62//26 61//26
f 96//26 61//26 139//26
f 93//26 66//26 65//26
f 93//26 65//26 138//26
f 10//27 9//27 8//27
f 10//27 8//27 55//27
f 133//10 105//10 71//10
f 133//10 71//10 70//10
f 132//28 69//28 68//28
f 132//28 68//28 124//28
f 50//26 131//26 123//26
f 50//26 123//26 51//26
f 100//29 53//29 52//29
f 100//29 52//29 88//29
f 57//29 56//29 74//29
f 57//29 74//29 120//29
f 101//26 107//26 75//26
f 101//26 75//26 94//26
f 39//28 38//28 82//28
f 39//28 82//28 109//28
f 40//27 127//27 104//27
f 40//27 104//27 11//27
f 58//10 119//10 83//10
f 58//10 83//10 59//10
f 74//3 56//3 94//3
f 74//3 94//3 75//3
f 135//30 104//30 127//30
f 135//30 127//30 128//30
f 82//3 38//3 59//3
f 82//3 59//3 83//3
f 50//3 96//3 99//3
f 50//3 99//3 69//3
f 131//6 50//6 69//6
f 131//6 69//6 132//6
f 91//7 92//7 141//7
f 91//7 141//7 112//7
f 142//31 112//31 141//31
f 142//31 141//31 143//31
f 67//29 72//29 97//29
f 67//29 97//29 64//29
f 70//3 91//3 112//3
f 70//3 112//3 111//3
f 45//28 99//28 140//28
f 45//28 140//28 42//28
f 63//29 95//29 137//29
f 63//29 137//29 60//29
f 45//3 44//3 91//3
f 45//3 91//3 99//3
f 49//3 48//3 73//3
f 49//3 73//3 41//3
f 49//28 41//28 54//28
f 49//28 54//28 46//28
f 63//3 62//3 96//3
f 63//3 96//3 95//3
f 67//3 66//3 93//3
f 67//3 93//3 72//3
f 133//6 70//6 111//6
f 133//6 111//6 134//6
f 65//3 60//3 137//3
f 65//3 137//3 138//3
f 47//3 64//3 97//3
f 47//3 97//3 98//3
f 61//3 42//3 140//3
f 61//3 140//3 139//3
f 8//3 46//3 54//3
f 8//3 54//3 55//3
f 43//3 143//3 141//3
f 43//3 141//3 92//3
f 129//31 134//31 111//31
f 129//31 111//31 136//31
f 13//1 28//1 23//1
f 13//1 23//1 7//1
f 12//1 7//1 3//1
f 12//1 3//1 2//1
f 13//32 90//32 114//32
f 13//33 114//33 117//33
f 3//34 6//34 5//34
f 3//34 5//34 1//34
f 118//1 144//1 115//1
f 118//1 115//1 114//1
f 117//35 116//35 28//35
f 117//35 28//35 13//35
f 16//2 144//2 118//2
f 16//2 118//2 2//2
f 23//2 25//2 8//2
f 23//2 8//2 7//2
f 5//5 22//5 14//5
f 5//5 14//5 1//5
f 4//5 104//5 135//5
f 4//5 135//5 5//5
f 135//5 145//5 22//5
f 135//5 22//5 5//5
f 146//36 26//36 147//36
f 146//36 147//36 148//36
f 23//4 21//4 27//4
f 23//4 27//4 24//4
f 149//4 27//4 26//4
f 149//4 26//4 146//4
f 150//2 151//2 152//2
f 150//2 152//2 153//2
f 154//2 155//2 156//2
f 154//2 156//2 157//2
f 158//4 159//4 160//4
f 158//4 160//4 161//4
f 162//37 163//37 27//37
f 162//37 27//37 149//37
f 164//36 165//36 166//36
f 164//36 166//36 167//36
f 168//2 169//2 170//2
f 168//2 170//2 171//2
f 172//2 173//2 174//2
f 172//2 174//2 175//2
f 176//4 177//4 178//4
f 176//4 178//4 179//4
f 180//4 181//4 165//4
f 180//4 165//4 164//4
f 182//5 183//5 184//5
f 182//5 184//5 185//5
f 160//5 186//5 187//5
f 160//5 187//5 161//5
f 186//38 188//38 189//38
f 186//38 189//38 184//38
f 190//5 191//5 192//5
f 190//5 192//5 193//5
f 176//5 194//5 195//5
f 176//5 195//5 177//5
f 160//9 196//9 188//9
f 160//9 188//9 186//9
f 28//5 197//5 198//5
f 28//5 198//5 29//5
f 199//39 200//39 153//39
f 199//39 153//39 152//39
f 180//4 164//4 201//4
f 180//4 201//4 202//4
f 203//4 159//4 158//4
f 203//4 158//4 204//4
f 205//37 206//37 181//37
f 205//37 181//37 180//37
f 149//4 146//4 165//4
f 149//4 165//4 181//4
f 207//4 179//4 178//4
f 207//4 178//4 199//4
f 159//36 201//36 208//36
f 159//36 208//36 209//36
f 21//4 20//4 210//4
f 21//4 210//4 26//4
f 195//12 211//12 212//12
f 195//12 212//12 177//12
f 184//13 189//13 213//13
f 184//13 213//13 185//13
f 190//15 214//15 215//15
f 190//14 215//14 191//14
f 150//2 153//2 43//2
f 150//2 43//2 42//2
f 168//2 171//2 61//2
f 168//2 61//2 60//2
f 153//2 216//2 143//2
f 153//2 143//2 43//2
f 175//2 168//2 60//2
f 175//2 60//2 65//2
f 172//2 175//2 65//2
f 172//2 65//2 64//2
f 25//2 154//2 46//2
f 25//2 46//2 8//2
f 217//40 19//40 218//40
f 217//40 218//40 219//40
f 157//2 172//2 64//2
f 157//2 64//2 47//2
f 213//5 189//5 188//5
f 213//5 188//5 196//5
f 29//3 198//3 144//3
f 29//3 144//3 16//3
f 220//5 221//5 222//5
f 220//5 222//5 223//5
f 224//5 225//5 226//5
f 224//5 226//5 227//5
f 228//5 229//5 215//5
f 228//5 215//5 214//5
f 212//5 211//5 230//5
f 212//5 230//5 231//5
f 147//4 228//4 214//4
f 147//4 214//4 148//4
f 166//4 220//4 223//4
f 166//4 223//4 167//4
f 208//4 213//4 196//4
f 208//4 196//4 209//4
f 232//4 224//4 227//4
f 232//4 227//4 233//4
f 234//4 212//4 231//4
f 234//4 231//4 235//4
f 191//41 215//41 229//41
f 191//42 229//42 145//42
f 192//12 221//12 220//12
f 192//12 220//12 193//12
f 203//4 202//4 201//4
f 203//4 201//4 159//4
f 176//14 227//14 226//14
f 176//15 226//15 194//15
f 182//9 223//9 222//9
f 182//9 222//9 183//9
f 236//19 231//19 230//19
f 236//19 230//19 237//19
f 187//13 225//13 224//13
f 187//13 224//13 161//13
f 237//43 230//43 211//43
f 237//44 211//44 195//44
f 183//45 222//45 221//45
f 183//46 221//46 192//46
f 181//39 206//39 157//39
f 181//39 157//39 156//39
f 194//47 226//47 225//47
f 194//48 225//48 187//48
f 238//37 239//37 202//37
f 238//37 202//37 203//37
f 204//37 207//37 240//37
f 204//37 240//37 241//37
f 204//49 241//49 171//49
f 204//49 171//49 170//49
f 202//49 239//49 175//49
f 202//49 175//49 174//49
f 27//50 163//50 25//50
f 27//50 25//50 24//50
f 242//4 236//4 218//4
f 242//4 218//4 243//4
f 234//39 178//39 177//39
f 234//39 177//39 212//39
f 233//51 227//51 176//51
f 233//51 176//51 179//51
f 158//49 161//49 224//49
f 158//49 224//49 232//49
f 209//52 196//52 160//52
f 209//52 160//52 159//52
f 167//52 223//52 182//52
f 167//52 182//52 164//52
f 208//49 201//49 185//49
f 208//49 185//49 213//49
f 148//51 214//51 190//51
f 148//51 190//51 146//51
f 147//50 26//50 210//50
f 147//50 210//50 228//50
f 166//39 165//39 193//39
f 166//39 193//39 220//39
f 182//4 185//4 201//4
f 182//4 201//4 164//4
f 145//30 229//30 228//30
f 145//30 228//30 210//30
f 190//4 193//4 165//4
f 190//4 165//4 146//4
f 158//4 179//4 207//4
f 158//4 207//4 204//4
f 232//36 233//36 179//36
f 232//36 179//36 158//36
f 199//37 244//37 245//37
f 199//37 245//37 200//37
f 246//53 216//53 245//53
f 246//53 245//53 244//53
f 173//52 172//52 205//52
f 173//52 205//52 180//52
f 178//4 242//4 244//4
f 178//4 244//4 199//4
f 151//51 150//51 240//51
f 151//51 240//51 207//51
f 216//2 246//2 18//2
f 216//2 18//2 17//2
f 169//52 168//52 238//52
f 169//52 238//52 203//52
f 151//4 207//4 199//4
f 151//4 199//4 152//4
f 155//4 149//4 181//4
f 155//4 181//4 156//4
f 155//51 154//51 162//51
f 155//51 162//51 149//51
f 169//4 203//4 204//4
f 169//4 204//4 170//4
f 173//4 180//4 202//4
f 173//4 202//4 174//4
f 234//36 235//36 242//36
f 234//36 242//36 178//36
f 154//2 157//2 47//2
f 154//2 47//2 46//2
f 175//4 239//4 238//4
f 175//4 238//4 168//4
f 157//4 206//4 205//4
f 157//4 205//4 172//4
f 171//4 241//4 240//4
f 171//4 240//4 150//4
f 25//4 163//4 162//4
f 25//4 162//4 154//4
f 153//4 200//4 245//4
f 153//4 245//4 216//4
f 231//53 236//53 242//53
f 231//53 242//53 235//53
f 191//5 145//5 135//5
f 191//5 135//5 85//5
f 192//5 191//5 85//5
f 192//5 85//5 84//5
f 183//5 192//5 84//5
f 183//5 84//5 77//5
f 184//5 183//5 77//5
f 184//5 77//5 76//5
f 186//5 184//5 76//5
f 186//5 76//5 79//5
f 187//5 186//5 79//5
f 187//5 79//5 78//5
f 194//5 187//5 78//5
f 194//5 78//5 87//5
f 195//5 194//5 87//5
f 195//5 87//5 86//5
f 29//1 16//1 15//1
f 29//1 15//1 23//1
f 28//54 116//54 115//54
f 28//55 115//55 197//55
f 15//56 14//56 22//56
f 15//56 22//56 21//56
f 247//57 217//57 219//57
f 247//57 219//57 248//57
f 197//1 115//1 144//1
f 197//1 144//1 198//1
f 171//2 150//2 42//2
f 171//2 42//2 61//2
f 20//5 22//5 145//5
f 20//5 145//5 210//5
f 237//5 195//5 86//5
f 237//5 86//5 32//5
f 1//1 14//1 16//1
f 1//1 16//1 2//1
f 236//5 237//5 219//5
f 236//5 219//5 218//5
f 90//1 89//1 118//1
f 90//1 118//1 114//1
f 19//2 217//2 249//2
f 19//2 249//2 37//2
f 248//5 219//5 250//5
f 248//5 250//5 251//5
f 136//5 102//5 30//5
f 136//5 30//5 32//5
f 247//11 248//11 251//11
f 247//11 251//11 252//11
f 247//2 252//2 249//2
f 247//2 249//2 217//2
f 143//2 216//2 17//2
f 143//2 17//2 36//2
f 18//4 243//4 218//4
f 18//4 218//4 19//4
f 136//5 253//5 254//5
f 136//5 254//5 102//5
f 249//58 250//58 255//58
f 249//59 255//59 37//59
f 250//60 249//60 252//60
f 250//60 252//60 251//60
f 34//61 33//61 31//61
f 34//61 31//61 35//61
f 35//62 31//62 30//62
f 35//62 30//62 36//62
f 37//3 255//3 33//3
f 37//3 33//3 34//3
f 219//5 237//5 32//5
f 219//5 32//5 250//5
f 250//5 32//5 33//5
f 250//5 33//5 255//5
f 253//63 256//63 257//63
f 253//63 257//63 254//63
f 254//64 257//64 103//64
f 254//64 103//64 102//64
f 142//2 103//2 257//2
f 142//2 257//2 256//2
f 143//2 36//2 103//2
f 143//2 103//2 142//2
f 111//3 110//3 253//3
f 111//3 253//3 136//3
f 110//3 113//3 256//3
f 110//3 256//3 253//3
f 113//3 112//3 142//3
f 113//3 142//3 256//3
f 18//4 242//4 243//4
f 242//65 18//65 244//65
f 244//4 18//4 246//4
